<?xml version="1.0" standalone="no"?>
<!DOCTYPE svg PUBLIC "-//W3C//DTD SVG 1.1//EN" "http://www.w3.org/Graphics/SVG/1.1/DTD/svg11.dtd" >
<svg xmlns="http://www.w3.org/2000/svg">
<metadata></metadata>
<defs>
<font id="interstatecondregular" horiz-adv-x="888" >
<font-face units-per-em="2048" ascent="1638" descent="-410" />
<missing-glyph horiz-adv-x="450" />
<glyph horiz-adv-x="0" />
<glyph unicode="&#xd;" horiz-adv-x="450" />
<glyph unicode=" "  horiz-adv-x="450" />
<glyph unicode="&#x09;" horiz-adv-x="450" />
<glyph unicode="&#xa0;" horiz-adv-x="450" />
<glyph unicode="!" horiz-adv-x="507" d="M115 117q0 59 41 100t98 41t98 -41t41 -100q0 -57 -40 -98.5t-99 -41.5q-57 0 -98 41t-41 99zM154 721v713h200v-713l-32 -307h-136z" />
<glyph unicode="&#x22;" horiz-adv-x="905" d="M127 1434h240l-52 -670h-137zM539 1434h239l-51 -670h-137z" />
<glyph unicode="#" horiz-adv-x="1228" d="M92 328v184h195v410h-195v184h195v328h190v-328h275v328h190v-328h195v-184h-195v-410h195v-184h-195v-328h-190v328h-275v-328h-190v328h-195zM477 512h275v410h-275v-410z" />
<glyph unicode="$" horiz-adv-x="907" d="M55 231l158 127q104 -166 233 -165q172 0 172 178q0 82 -47 138t-194.5 153.5t-202.5 166.5q-84 104 -84 258q0 129 66.5 217.5t183.5 116.5v176h201v-170q150 -27 260 -186l-148 -131q-55 74 -98 102.5t-109 28.5q-150 0 -149 -147q0 -78 45 -131q39 -47 164 -127 q164 -106 227 -181q92 -112 92 -274q0 -147 -73.5 -246.5t-210.5 -126.5v-172h-201v172q-172 35 -285 223z" />
<glyph unicode="%" horiz-adv-x="1751" d="M102 1008q0 207 74 323q78 125 232 125q303 0 303 -444q0 -203 -76 -322q-80 -125 -232 -125t-229 123q-72 115 -72 320zM272 1012q0 -291 136 -291q135 0 135 287q0 289 -137 288q-133 0 -134 -284zM401 0l756 1434h180l-755 -1434h-181zM1040 420q0 207 74 323 q78 125 232 125q303 0 303 -444q0 -203 -76 -322q-80 -125 -232 -125t-229 123q-72 115 -72 320zM1210 424q0 -291 136 -291q135 0 135 287q0 289 -138 289q-133 0 -133 -285z" />
<glyph unicode="&#x26;" horiz-adv-x="983" d="M66 332q0 254 233 442l-35 62q-68 119 -88 168q-33 80 -33 155q0 131 91.5 214t236.5 83q174 0 322 -115l-97 -163q-127 90 -227 90q-125 0 -125 -105q0 -98 68 -215l258 -444q29 92 55 215l164 -45q-57 -242 -107 -365l183 -309h-207l-72 121q-111 -143 -289 -144 q-166 0 -252 99q-80 92 -79 256zM262 354q0 -188 154 -188q106 0 174 119l-201 340q-127 -133 -127 -271z" />
<glyph unicode="'" horiz-adv-x="493" d="M127 1434h240l-52 -670h-137z" />
<glyph unicode="(" horiz-adv-x="634" d="M102 614q0 266 101 484q74 160 250 368l108 -82q-256 -346 -256 -759q0 -424 256 -768l-108 -82q-170 201 -246 362q-104 219 -105 477z" />
<glyph unicode=")" horiz-adv-x="634" d="M74 -143q256 346 256 759q0 424 -256 768l108 82q170 -201 246 -362q104 -219 104 -477q0 -266 -100 -484q-74 -160 -250 -368z" />
<glyph unicode="*" horiz-adv-x="878" d="M68 946l262 117l-260 119l84 143l233 -172l-29 287h164l-30 -281l233 168l84 -145l-268 -119l270 -117l-84 -145l-235 168l30 -287h-164l29 289l-235 -170z" />
<glyph unicode="+" horiz-adv-x="927" d="M72 608v193h293v323h198v-323h293v-193h-293v-323h-198v323h-293z" />
<glyph unicode="," horiz-adv-x="475" d="M113 -231l26 489h244l-137 -489h-133z" />
<glyph unicode="-" horiz-adv-x="614" d="M82 647v205h450v-205h-450z" />
<glyph unicode="." horiz-adv-x="475" d="M94 121q0 59 42 102t102 43q59 0 101 -43t42 -102t-42 -101.5t-101 -42.5t-101.5 42t-42.5 102z" />
<glyph unicode="/" horiz-adv-x="716" d="M-12 -184l542 1802h199l-543 -1802h-198z" />
<glyph unicode="0" horiz-adv-x="1021" d="M88 715q0 334 98 526q109 215 324 215q217 0 326 -211q98 -188 98 -526q0 -334 -98 -526q-111 -215 -328 -216q-215 0 -324 213q-96 190 -96 525zM289 719q0 -545 225 -545q219 0 219 541q0 545 -227 545q-217 0 -217 -541z" />
<glyph unicode="1" horiz-adv-x="563" d="M39 1128v140q100 12 152.5 49t74.5 117h164v-1434h-199v1128h-192z" />
<glyph unicode="2" horiz-adv-x="970" d="M98 0q16 311 111 494q82 156 289 325q145 119 145 248q0 188 -174 188q-111 0 -240 -118l-125 145q170 174 377 174q176 0 271.5 -98t95.5 -264q0 -129 -53.5 -222.5t-184.5 -202t-188 -198.5q-74 -111 -94 -270h532v-201h-762z" />
<glyph unicode="3" horiz-adv-x="952" d="M43 207l147 125q119 -160 263 -160q90 0 146 60.5t56 168.5q0 260 -282 261h-47v192h51q113 0 179.5 60.5t66.5 166.5q0 180 -174 181q-94 0 -222 -121l-123 141q168 174 353 174q166 0 264 -92q102 -98 102 -277q0 -229 -202 -315q235 -75 235 -360q0 -203 -116.5 -319 t-297.5 -116q-244 0 -399 230z" />
<glyph unicode="4" horiz-adv-x="972" d="M57 346v158l559 930h191v-897h98v-191h-98v-346h-195v346h-555zM270 535q18 0 68 2h80h194v372q0 -10 6 205q-33 -61 -108 -192l-139 -228q-33 -55 -101 -159z" />
<glyph unicode="5" horiz-adv-x="970" d="M78 133l112 152q119 -113 254 -113q240 0 240 307q0 125 -49 201q-55 82 -154 82q-119 0 -186 -103l-172 33l37 742h678v-197h-494l-18 -334q84 53 184 53q178 0 275.5 -125t97.5 -344q0 -242 -111 -372q-117 -137 -338 -138q-207 0 -356 156z" />
<glyph unicode="6" horiz-adv-x="958" d="M88 508q0 418 168 668.5t479 279.5v-188q-176 -23 -293 -158q-111 -127 -141 -317q82 92 225 92q162 0 263.5 -123t101.5 -320q0 -213 -112.5 -339t-305.5 -126q-178 0 -278 127q-106 135 -107 404zM283 426q0 -117 54 -187.5t148 -70.5q100 0 155.5 72.5t55.5 197.5 q0 115 -56 185.5t-155 70.5q-96 0 -149 -70.5t-53 -197.5z" />
<glyph unicode="7" horiz-adv-x="901" d="M61 1239v195h762v-205q-199 -231 -282 -561q-70 -272 -70 -668h-201q0 815 338 1239h-547z" />
<glyph unicode="8" horiz-adv-x="978" d="M92 424q0 242 176 360q-145 94 -145 277q0 180 103.5 287.5t269.5 107.5q168 0 269 -107.5t101 -283.5q0 -184 -147 -281q176 -116 176 -352q0 -203 -113.5 -329t-283.5 -126q-172 0 -285 111q-121 123 -121 336zM289 428q0 -258 213 -258q196 0 196 258q0 117 -54 184.5 t-148 67.5q-96 0 -151.5 -67.5t-55.5 -184.5zM319 1065q0 -86 47.5 -140.5t129.5 -54.5q84 0 129 54.5t45 140.5q0 199 -176 199q-174 0 -175 -199z" />
<glyph unicode="9" horiz-adv-x="958" d="M68 991q0 213 112.5 339t304.5 126q178 0 279 -127q106 -135 106 -403q0 -418 -165 -666q-170 -254 -482 -283v189q176 23 295 158q109 127 139 317q-82 -92 -225 -92q-162 0 -263 123t-101 319zM262 995q0 -115 56.5 -185.5t154.5 -70.5q96 0 149.5 71t53.5 198 q0 117 -54.5 187.5t-148.5 70.5q-100 0 -155.5 -73t-55.5 -198z" />
<glyph unicode=":" horiz-adv-x="475" d="M94 121q0 59 42 102t102 43q59 0 101 -43t42 -102t-42 -101.5t-101 -42.5t-101.5 42t-42.5 102zM94 952q0 59 42 102.5t102 43.5q59 0 101 -43.5t42 -102.5t-42 -101t-101 -42t-101.5 42t-42.5 101z" />
<glyph unicode=";" horiz-adv-x="475" d="M92 -231l27 489h243l-137 -489h-133zM94 952q0 59 42 102.5t102 43.5q59 0 101 -43.5t42 -102.5t-42 -101t-101 -42t-101.5 42t-42.5 101z" />
<glyph unicode="&#x3c;" horiz-adv-x="663" d="M76 614v181l493 430v-246l-321 -272l321 -275v-248z" />
<glyph unicode="=" horiz-adv-x="1024" d="M133 373v194h758v-194h-758zM133 842v194h758v-194h-758z" />
<glyph unicode="&#x3e;" horiz-adv-x="663" d="M94 184v246l322 272l-322 275v248l494 -430v-181z" />
<glyph unicode="?" horiz-adv-x="923" d="M37 1262q195 195 426 194q182 0 280.5 -96t98.5 -260q0 -135 -62 -226q-45 -70 -151 -141q-76 -51 -97 -119q-16 -53 -16 -200h-207q0 195 33 276q39 100 176 191q117 78 117 200q0 172 -180 172q-133 0 -291 -141zM281 117q0 59 40.5 100t98.5 41q57 0 98 -41t41 -100 q0 -57 -40 -98.5t-99 -41.5q-57 0 -98 41t-41 99z" />
<glyph unicode="@" horiz-adv-x="1323" d="M92 717q0 334 160 536.5t410 202.5q254 0 411.5 -197.5t157.5 -521.5q0 -422 -240 -422q-119 0 -168 123q-70 -123 -202 -123q-98 0 -166 70q-74 76 -74 211q0 125 70 195q63 66 161 65q102 0 172 -53v104q0 121 -141 121q-82 0 -151 -49l-46 100q100 70 209 70 q250 0 250 -246v-344q0 -131 96 -131q117 0 117 311q0 283 -127 445q-125 156 -329 155q-207 0 -329 -169t-122 -451q0 -283 124 -455t331 -172q115 0 200 47l41 -96q-109 -66 -245 -66q-250 0 -410 203t-160 537zM506 600q0 -162 131 -162q100 0 147 111v129 q-61 61 -155 61q-123 0 -123 -139z" />
<glyph unicode="A" horiz-adv-x="1011" d="M51 0l352 1434h207l351 -1434h-220l-84 379h-311l-82 -379h-213zM387 569h229l-53 242q-10 43 -61 313q-20 -109 -62 -313z" />
<glyph unicode="B" horiz-adv-x="1017" d="M143 0v1434h361q180 0 284 -91q113 -98 113 -288q0 -94 -41 -172q-45 -86 -127 -125q90 -33 141.5 -120t51.5 -206q0 -209 -108.5 -320.5t-293.5 -111.5h-381zM342 195h180h2q197 0 197 237q0 225 -219 225h-160v-462zM342 850h164q84 0 137 50.5t53 148.5 q0 190 -186 190h-168v-389z" />
<glyph unicode="C" horiz-adv-x="983" d="M92 715q0 334 101 526q111 215 327 215q313 0 373 -350l-203 -51q-20 104 -57 147q-41 51 -119 51q-215 0 -215 -534q0 -227 49 -369q59 -170 180 -170q70 0 113 51q37 49 68 168l186 -59q-76 -362 -381 -363q-219 0 -328 216q-94 190 -94 522z" />
<glyph unicode="D" horiz-adv-x="1038" d="M143 0v1434h349q229 0 346 -195q108 -182 108 -516q0 -330 -112 -520q-121 -203 -342 -203h-349zM344 197h148q133 0 196 168q51 137 51 358q0 514 -254 514h-141v-1040z" />
<glyph unicode="E" horiz-adv-x="911" d="M143 0v1434h674v-195h-473v-383h309v-192h-309v-469h500v-195h-701z" />
<glyph unicode="F" horiz-adv-x="876" d="M143 0v1434h684v-195h-483v-393h309v-193h-309v-653h-201z" />
<glyph unicode="G" horiz-adv-x="1046" d="M92 717q0 338 107 532q115 207 331 207q315 0 383 -350l-200 -53q-25 111 -68 155.5t-121 44.5q-113 0 -172 -153q-53 -139 -53 -383q0 -219 49 -361q61 -176 191 -176q100 0 142 61.5t42 196.5v103h-160v196h365v-317q0 -197 -94 -311q-104 -131 -310 -132 q-217 0 -329 218q-102 193 -103 522z" />
<glyph unicode="H" horiz-adv-x="1089" d="M143 0v1434h201v-574h401v574h201v-1434h-201v664h-401v-664h-201z" />
<glyph unicode="I" horiz-adv-x="507" d="M154 0v1434h200v-1434h-200z" />
<glyph unicode="J" horiz-adv-x="897" d="M33 348l182 47q23 -121 63.5 -170t116.5 -49q164 0 164 227v1031h201v-1024q0 -432 -365 -433q-313 0 -362 371z" />
<glyph unicode="K" horiz-adv-x="987" d="M143 0v1434h201v-363q0 -139 -4 -229q41 76 115 202l235 390h228l-312 -504l340 -930h-217l-266 719l-119 -193v-526h-201z" />
<glyph unicode="L" horiz-adv-x="856" d="M143 0v1434h201v-1237h459v-197h-660z" />
<glyph unicode="M" horiz-adv-x="1253" d="M143 0v1434h211l185 -596q57 -186 88 -314q61 225 90 320l184 590h209v-1434h-197v578q0 244 5 354q-43 -152 -111 -371l-184 -600l-185 600q-68 219 -110 371q4 -111 4 -354v-578h-189z" />
<glyph unicode="N" horiz-adv-x="1089" d="M143 0v1434h201l309 -682q41 -96 101 -236q-4 106 -4 287v631h196v-1434h-164l-346 768q-41 98 -100 236q4 -106 4 -287v-717h-197z" />
<glyph unicode="O" horiz-adv-x="1050" d="M92 715q0 332 103 526q113 215 329 215q217 0 332 -213q102 -192 102 -524t-104 -526q-115 -215 -332 -216q-217 0 -327 213q-102 193 -103 525zM297 719q0 -227 51 -371q59 -170 180 -170q226 0 226 537q0 227 -52 370q-61 170 -182 170q-223 0 -223 -536z" />
<glyph unicode="P" horiz-adv-x="978" d="M143 0v1434h379q168 0 279 -99q125 -110 125 -319q0 -207 -125 -326q-115 -106 -289 -106h-168v-584h-201zM344 778h170q92 0 148.5 59.5t56.5 172.5q0 115 -62 174q-57 53 -149 53h-164v-459z" />
<glyph unicode="Q" horiz-adv-x="1050" d="M92 717q0 332 103 526q113 213 329 213q217 0 332 -213q102 -194 102 -526q0 -401 -155 -596l71 -113l-141 -82l-57 88q-70 -37 -152 -37q-217 0 -329 213q-102 195 -103 527zM297 717q0 -229 49 -373q57 -172 178 -172q27 0 45 8l-98 150l141 82l76 -117q66 139 66 422 q0 229 -49 368q-59 170 -181 170q-121 0 -178 -170q-49 -139 -49 -368z" />
<glyph unicode="R" horiz-adv-x="1044" d="M143 0v1434h404q172 0 278 -93q121 -104 121 -305q0 -289 -225 -377l229 -659h-223l-217 625h-166v-625h-201zM344 817h186q209 0 209 213q0 209 -209 209h-186v-422z" />
<glyph unicode="S" horiz-adv-x="907" d="M55 211l158 127q100 -160 233 -160q172 0 172 182q0 84 -48 145.5t-192.5 157t-203.5 173.5q-84 109 -84 262q0 160 98.5 259t264.5 99q215 0 348 -194l-148 -132q-53 72 -97 98.5t-110 26.5q-149 0 -149 -149q0 -82 44 -137.5t165 -132.5q160 -102 227 -187 q92 -114 92 -278q0 -176 -102 -285t-289 -109q-242 0 -379 234z" />
<glyph unicode="T" horiz-adv-x="864" d="M68 1237v197h729v-197h-265v-1237h-200v1237h-264z" />
<glyph unicode="U" horiz-adv-x="1077" d="M137 414v1020h201v-1012q0 -100 45 -166q51 -76 156 -76q109 0 159 78q43 63 43 162v1014h199v-1008q0 -209 -108.5 -329t-292.5 -120q-178 0 -290 121t-112 316z" />
<glyph unicode="V" horiz-adv-x="991" d="M51 1434h219l166 -719q23 -94 64 -303q41 201 63 303l164 719h213l-371 -1434h-149z" />
<glyph unicode="W" horiz-adv-x="1265" d="M57 1434h201l86 -516q55 -326 68 -437q10 82 65 434l82 519h154l84 -519q59 -369 67 -434q25 174 66 437l84 516h194l-258 -1434h-153l-99 502q-55 287 -69 399q-14 -117 -68 -393l-98 -508h-150z" />
<glyph unicode="X" horiz-adv-x="952" d="M57 0l314 737l-293 697h221l88 -228q74 -190 92 -258q29 94 92 258l88 228h215l-292 -691l313 -743h-221l-109 279q-76 197 -92 253q-25 -80 -92 -253l-109 -279h-215z" />
<glyph unicode="Y" horiz-adv-x="1009" d="M45 1434h227l127 -299q82 -190 113 -299q29 104 111 301l122 297h220l-355 -793v-641h-200v635z" />
<glyph unicode="Z" horiz-adv-x="942" d="M84 0v186l410 807q72 141 139 258q-86 -4 -207 -4h-289v187h697v-187l-412 -809q-66 -127 -139 -256q86 4 206 4h357v-186h-762z" />
<glyph unicode="[" horiz-adv-x="665" d="M154 -205v1639h407v-168h-217v-1303h217v-168h-407z" />
<glyph unicode="\" horiz-adv-x="716" d="M-12 1618h198l543 -1802h-199z" />
<glyph unicode="]" horiz-adv-x="665" d="M104 -43h218v1315h-218v162h408v-1639h-408v162z" />
<glyph unicode="^" horiz-adv-x="909" d="M61 782l312 652h164l311 -652h-219l-176 414l-177 -414h-215z" />
<glyph unicode="_" horiz-adv-x="716" d="M0 -168h717v-180h-717v180z" />
<glyph unicode="`" horiz-adv-x="819" d="M143 1546h277l188 -327h-168z" />
<glyph unicode="a" d="M63 338q0 170 99 264q94 88 252 88q90 0 164 -35v105q0 153 -138 153h-2q-98 0 -211 -67l-84 149q154 102 310 103q176 0 248.5 -72t72.5 -250v-776h-196v74q-84 -96 -222 -97q-125 0 -204 91q-88 96 -89 270zM260 342q0 -186 135 -186q126 0 183 100v215q-68 41 -162 41 q-156 0 -156 -170z" />
<glyph unicode="b" horiz-adv-x="917" d="M117 0v1391l196 102v-489q88 94 201 94q324 -1 324 -572q0 -266 -88 -407.5t-250 -141.5q-109 0 -187 80v-57h-196zM313 258q63 -96 170 -96q156 0 156 354q0 397 -166 397q-100 0 -160 -98v-557z" />
<glyph unicode="c" horiz-adv-x="839" d="M80 532q0 279 100.5 422.5t282.5 143.5q193 0 303 -189l-141 -123q-78 123 -168 123q-178 0 -178 -372q0 -371 184 -371q88 0 164 119l141 -117q-121 -190 -313 -191q-174 0 -271 138q-104 143 -104 417z" />
<glyph unicode="d" horiz-adv-x="917" d="M168 956.5q88 141.5 250 141.5q109 0 186 -80v373l197 102v-1493h-197v72q-88 -94 -201 -95q-323 0 -323 568q0 270 88 411.5zM279 559q0 -397 165 -397q101 0 160 98v557q-63 96 -170 96q-156 0 -155 -354z" />
<glyph unicode="e" horiz-adv-x="921" d="M80 532q0 274 106 424q100 141 277 142q168 0 270 -137q109 -150 109 -420q0 -49 -2 -70h-564q18 -305 203 -305q109 0 195 80l121 -125q-129 -143 -320 -144q-188 0 -293 152q-102 145 -102 403zM279 641h362q-4 123 -52 197.5t-130 74.5q-156 0 -180 -272z" />
<glyph unicode="f" horiz-adv-x="595" d="M57 891v184h109v152q0 127 70 196q63 63 172 64q98 0 161 -21v-163q-37 12 -82 12q-70 0 -97.5 -26.5t-27.5 -88.5v-125h177v-184h-177v-891h-196v891h-109z" />
<glyph unicode="g" horiz-adv-x="917" d="M168 956.5q88 141.5 250 141.5q109 0 186 -80v57h197v-981q0 -236 -96 -346q-102 -117 -343 -143l-55 157q176 23 236.5 86.5t60.5 217.5v8q-86 -96 -201 -97q-323 0 -323 568q0 270 88 411.5zM279 559q0 -397 165 -397q101 0 160 98v557q-63 96 -170 96 q-156 0 -155 -354z" />
<glyph unicode="h" horiz-adv-x="913" d="M117 0v1391l196 102v-492q76 96 209 97q152 0 216.5 -97.5t64.5 -306.5v-694h-197v662q0 135 -29.5 192t-103.5 57q-100 0 -160 -98v-813h-196z" />
<glyph unicode="i" horiz-adv-x="450" d="M102 1364q0 51 36 87t87 36q49 0 85 -36t36 -87q0 -49 -36 -85t-85 -36q-51 0 -87 36t-36 85zM127 0v1075h197v-1075h-197z" />
<glyph unicode="j" horiz-adv-x="450" d="M-84 -236q119 29 165 85.5t46 177.5v1048h197v-1036q0 -203 -85 -304.5t-272 -129.5zM102 1364q0 51 36 87t87 36q49 0 85 -36t36 -87q0 -49 -36 -85t-85 -36q-51 0 -87 36t-36 85z" />
<glyph unicode="k" horiz-adv-x="868" d="M117 0v1391l196 102v-645q0 -125 -4 -232q23 47 88 166l162 293h223l-231 -373l262 -702h-215l-178 502l-107 -170v-332h-196z" />
<glyph unicode="l" horiz-adv-x="450" d="M127 0v1391l197 102v-1493h-197z" />
<glyph unicode="m" horiz-adv-x="1361" d="M117 0v1075h196v-74q76 96 201 97q152 0 217 -115q100 115 252 115q156 0 215 -105q53 -94 53 -319v-674h-196v662q0 121 -8 159q-23 90 -105 90q-100 0 -160 -98v-813h-196v662q0 121 -8 159q-23 90 -105 90q-100 0 -160 -98v-813h-196z" />
<glyph unicode="n" horiz-adv-x="913" d="M117 0v1075h196v-74q76 96 209 97q152 0 216.5 -97.5t64.5 -306.5v-694h-197v662q0 135 -29.5 192t-103.5 57q-100 0 -160 -98v-813h-196z" />
<glyph unicode="o" horiz-adv-x="933" d="M80 532q0 276 104 424q100 141 285 142q176 0 279 -137q106 -148 106 -420q0 -276 -105.5 -420t-287.5 -144q-174 0 -275 138q-106 143 -106 417zM279 537q0 -371 188 -371q90 0 139 100.5t49 270.5q0 372 -189 372h-1q-186 0 -186 -372z" />
<glyph unicode="p" horiz-adv-x="917" d="M117 -395v1470h196v-71q88 94 201 94q324 -1 324 -572q0 -266 -88 -407.5t-250 -141.5q-109 0 -187 80v-350zM313 258q63 -96 170 -96q156 0 156 354q0 397 -166 397q-100 0 -160 -98v-557z" />
<glyph unicode="q" horiz-adv-x="917" d="M168 956.5q88 141.5 250 141.5q109 0 186 -80v57h197v-1368l-197 -102v467q-88 -94 -201 -95q-323 0 -323 568q0 270 88 411.5zM279 559q0 -397 165 -397q101 0 160 98v557q-63 96 -170 96q-156 0 -155 -354z" />
<glyph unicode="r" horiz-adv-x="688" d="M117 0v1075h196v-74q76 96 191 97q88 0 147 -37l-47 -197q-57 33 -137 33q-96 0 -154 -84v-813h-196z" />
<glyph unicode="s" horiz-adv-x="796" d="M55 92l76 164q147 -92 250 -92q141 0 141 117q0 53 -47 96q-37 33 -160 104q-115 68 -161 125q-61 76 -62 193q0 141 81 220t226 79q162 0 293 -101l-80 -166q-113 80 -217 80q-106 0 -106 -94q0 -49 33.5 -84t142.5 -98q137 -80 188 -139q66 -78 66 -201 q0 -152 -88 -235t-246 -83q-174 0 -330 115z" />
<glyph unicode="t" horiz-adv-x="653" d="M43 891v184h117v314l196 104v-418h207v-184h-207v-621q0 -106 82 -106q74 0 127 45l-22 -182q-76 -49 -176 -50q-207 0 -207 275v639h-117z" />
<glyph unicode="u" horiz-adv-x="913" d="M111 381v694h196v-661q0 -135 30 -192.5t103 -57.5q100 0 160 98v813h197v-1075h-197v74q-76 -96 -209 -97q-152 0 -217 101q-63 94 -63 303z" />
<glyph unicode="v" horiz-adv-x="851" d="M45 1075h201l131 -579q41 -182 55 -271q18 111 53 275l125 575h201l-268 -1075h-228z" />
<glyph unicode="w" horiz-adv-x="1222" d="M49 1075h189l79 -459q31 -176 48 -313q23 147 59 318l98 454h178l103 -454q39 -176 61 -318q18 147 45 313l76 459h189l-222 -1075h-184l-111 518q-27 129 -49 264q-25 -158 -49 -270l-108 -512h-185z" />
<glyph unicode="x" horiz-adv-x="903" d="M55 0l275 561l-252 514h221l78 -180q53 -125 74 -184q23 70 75 190l76 174h223l-250 -514l273 -561h-223l-99 227q-12 29 -71 185q-41 -109 -78 -191l-98 -221h-224z" />
<glyph unicode="y" d="M45 1075h209l125 -510q39 -156 63 -293q23 127 66 295l127 508h209l-424 -1454h-193l117 379z" />
<glyph unicode="z" horiz-adv-x="833" d="M74 0v168l358 575q37 59 100 152q-39 -2 -190 -2h-233v182h630v-166l-348 -577q-66 -109 -100 -152q39 2 190 2h258v-182h-665z" />
<glyph unicode="{" horiz-adv-x="706" d="M63 528v172h54q102 0 102 183v141q0 227 82 324q94 109 332 108v-143q-131 -14 -176 -78q-39 -53 -39 -188v-113q0 -145 -36 -216t-128 -104q92 -33 128 -103.5t36 -215.5v-111q0 -135 39 -188q45 -63 176 -78v-143q-238 0 -332 108q-82 96 -82 324v139q0 182 -102 182 h-54z" />
<glyph unicode="|" horiz-adv-x="503" d="M160 -379v2017h184v-2017h-184z" />
<glyph unicode="}" horiz-adv-x="706" d="M74 -82q131 14 176 78q39 53 39 188v113q0 145 35.5 216t128.5 103q-92 33 -128 104t-36 216v111q0 135 -39 188q-45 63 -176 78v143q238 0 332 -108q82 -96 81 -324v-139q0 -182 103 -183h53v-172h-53q-102 0 -103 -182v-141q0 -227 -81 -324q-94 -109 -332 -108v143z " />
<glyph unicode="~" horiz-adv-x="1150" d="M86 651q113 289 313 289q96 0 197 -70q119 -82 168 -82q47 0 77.5 32t76.5 124l147 -76q-113 -289 -313 -288q-94 0 -197 69q-119 82 -170 82q-47 0 -76.5 -31.5t-75.5 -124.5z" />
<glyph unicode="&#xa0;" horiz-adv-x="507" d="M154 0v1434h200v-1434h-200zM162 1526l188 327h277l-297 -327h-168z" />
<glyph unicode="&#xa1;" horiz-adv-x="833" d="M74 0v168l358 575q37 59 100 152q-39 -2 -190 -2h-233v182h630v-166l-348 -577q-66 -109 -100 -152q39 2 190 2h258v-182h-665zM98 1546h160l158 -180l157 180h156l-209 -327h-213z" />
<glyph unicode="&#xa2;" horiz-adv-x="839" d="M80 725q0 461 264 547v184h203v-176q131 -29 219 -178l-139 -121q-78 127 -170 127q-178 0 -178 -379q0 -377 184 -377q86 0 164 125l141 -117q-90 -143 -221 -180v-203h-203v209q-264 84 -264 539z" />
<glyph unicode="&#xa3;" horiz-adv-x="960" d="M123 0v209q94 100 130 180t40 191h-170v178h149q-23 61 -43 102q-55 113 -55 234q0 168 98.5 265t272.5 97q119 0 203 -37q77 -32 165 -116l-122 -150q-70 59 -113 78q-55 25 -137 24q-74 0 -118 -45t-44 -118q0 -90 49 -203q37 -84 47 -131h234v-178h-224 q-10 -199 -147 -398h547v-182h-762z" />
<glyph unicode="&#xa4;" horiz-adv-x="1536" d="M41 709l367 256q18 12 30 6q20 -18 15 -39l-39 -129h260v274l-127 -39q-20 -10 -41 15q-6 14 4 34l258 363l254 -365q12 -18 6 -32q-16 -20 -37 -15l-129 39v-274h260l-39 129q-6 23 13 39q14 6 32 -6l367 -256l-367 -256q-18 -10 -32 -4q-20 16 -13 40l39 125h-260v-280 l129 41q20 6 37 -13q8 -14 -6 -34l-254 -365l-258 365q-10 23 -4 34q18 23 41 13l127 -41v280h-260l39 -125q6 -23 -15 -40q-12 -6 -35 4z" />
<glyph unicode="&#xa5;" horiz-adv-x="948" d="M45 1434h225l107 -299q80 -225 104 -320q25 96 103 322l102 297h217l-328 -824v-180h209v-182h-209v-248h-192v248h-209v182h209v174z" />
<glyph unicode="&#xa6;" horiz-adv-x="507" d="M153 1512l209 327h213l209 -327h-160l-157 180l-158 -180h-156zM154 0v1434h200v-1434h-200z" />
<glyph unicode="&#xa7;" horiz-adv-x="1038" d="M92 586q0 195 191 307q-104 92 -105 229q0 152 94.5 243t266.5 91q180 0 338 -117l-109 -155q-113 82 -236 82q-141 0 -141 -131q0 -55 45 -96.5t172 -104.5q188 -92 256 -166q82 -90 82 -233q0 -195 -190 -308q104 -92 104 -229q0 -152 -94 -243t-266 -91 q-180 0 -338 117l108 156q113 -82 236 -82q141 0 141 131q0 55 -45 96t-172 104q-188 92 -256 166q-82 90 -82 234zM303 604q0 -78 45 -126t180 -113l66 -33q141 67 141 184q0 78 -45 126t-180 114l-66 32q-141 -68 -141 -184z" />
<glyph unicode="&#xa8;" horiz-adv-x="819" d="M100 1346q0 53 39 91t90 38t89 -39t38 -90t-37.5 -89t-89.5 -38q-51 0 -90 37.5t-39 89.5zM463 1346q0 53 39 91t90 38t89 -39t38 -90t-38 -89t-89 -38t-90 37.5t-39 89.5z" />
<glyph unicode="&#xa9;" horiz-adv-x="507" d="M153 1653q0 53 39 91t90 38t89 -39t38 -90t-37.5 -89t-89.5 -38q-51 0 -90 37.5t-39 89.5zM154 0v1434h200v-1434h-200zM516 1653q0 53 39 91t90 38t89 -39t38 -90t-38 -89t-89 -38t-90 37.5t-39 89.5z" />
<glyph unicode="&#xaa;" horiz-adv-x="774" d="M86 840q0 139 78 212.5t207 73.5q70 0 131 -28v84q0 125 -113 125q-82 0 -170 -56l-67 121q127 84 245 84q145 0 205 -58.5t60 -201.5v-629h-160v60q-66 -78 -178 -78q-100 0 -166 72q-72 80 -72 219zM246 844q0 -152 108 -152q103 0 148 82v174q-53 33 -131 33 q-125 0 -125 -137z" />
<glyph unicode="&#xab;" horiz-adv-x="1003" d="M41 537l276 538h201l-266 -536l266 -539h-201zM434 537l277 538h200l-266 -536l266 -539h-200z" />
<glyph unicode="&#xac;" horiz-adv-x="1058" d="M61 657v185h103v592h348q229 0 346 -195q109 -182 109 -516q0 -330 -113 -520q-121 -203 -342 -203h-348v657h-103zM360 197h152q133 0 197 168q51 137 51 358q0 514 -254 514h-146v-395h166v-185h-166v-460z" />
<glyph unicode="&#xad;" horiz-adv-x="614" d="M82 647v205h450v-205h-450z" />
<glyph unicode="&#xae;" horiz-adv-x="1089" d="M143 0v1434h201l309 -682q41 -96 101 -236q-4 106 -4 287v631h196v-1434h-164l-346 768q-41 98 -100 236q4 -106 4 -287v-717h-197zM209 1530q0 121 57 190q53 63 139 64q78 0 213 -82q41 -25 72 -25q55 0 68 100h135q0 -123 -53.5 -190.5t-139.5 -67.5q-82 0 -217 82 q-41 25 -67 25q-61 0 -72 -96h-135z" />
<glyph unicode="&#xaf;" horiz-adv-x="819" d="M143 1249v174h533v-174h-533z" />
<glyph unicode="&#xb0;" horiz-adv-x="1050" d="M92 715q0 332 103 526q113 215 329 215q217 0 332 -213q102 -192 102 -524t-104 -526q-115 -215 -332 -216q-217 0 -327 213q-102 193 -103 525zM157 1853h277l188 -327h-168zM297 719q0 -227 51 -371q59 -170 180 -170q226 0 226 537q0 227 -52 370q-61 170 -182 170 q-223 0 -223 -536z" />
<glyph unicode="&#xb1;" horiz-adv-x="1050" d="M92 715q0 332 103 526q113 215 329 215q217 0 332 -213q102 -192 102 -524t-104 -526q-115 -215 -332 -216q-217 0 -327 213q-102 193 -103 525zM297 719q0 -227 51 -371q59 -170 180 -170q226 0 226 537q0 227 -52 370q-61 170 -182 170q-223 0 -223 -536zM418 1526 l188 327h277l-297 -327h-168z" />
<glyph unicode="&#xb2;" horiz-adv-x="911" d="M143 0v1434h674v-195h-473v-383h309v-192h-309v-469h500v-195h-701zM176 1526l209 327h213l209 -327h-160l-157 180l-158 -180h-156z" />
<glyph unicode="&#xb3;" horiz-adv-x="911" d="M143 0v1434h674v-195h-473v-383h309v-192h-309v-469h500v-195h-701zM198 1653q0 53 39 91t90 38t89 -39t38 -90t-37.5 -89t-89.5 -38q-51 0 -90 37.5t-39 89.5zM561 1653q0 53 39 91t90 38t89 -39t38 -90t-38 -89t-89 -38t-90 37.5t-39 89.5z" />
<glyph unicode="&#xb4;" horiz-adv-x="819" d="M211 1219l188 327h277l-297 -327h-168z" />
<glyph unicode="&#xb6;" horiz-adv-x="1243" d="M86 1001q0 207 125 326q115 106 289 107h610v-1813h-195v1616h-161v-1616h-195v963h-72q-162 0 -272 98q-129 113 -129 319z" />
<glyph unicode="&#xb7;" horiz-adv-x="475" d="M94 752q0 59 42 102t102 43q59 0 101 -43t42 -102t-42 -101.5t-101 -42.5t-101.5 42t-42.5 102z" />
<glyph unicode="&#xb8;" horiz-adv-x="819" d="M209 -336l41 66q68 -35 149 -35q100 0 101 74q0 68 -54 67q-37 0 -75 -24l-66 26l39 187h96l-22 -123q31 18 86 18q131 0 131 -145q0 -170 -219 -170q-106 0 -207 59z" />
<glyph unicode="&#xb9;" horiz-adv-x="911" d="M143 0v1434h674v-195h-473v-383h309v-192h-309v-469h500v-195h-701zM371 1526l188 327h277l-297 -327h-168z" />
<glyph unicode="&#xba;" horiz-adv-x="786" d="M80 997q0 225 83 342t232 117q143 0 226 -110q86 -119 86 -340q0 -223 -86 -340t-234 -117q-141 0 -221 110q-86 117 -86 338zM240 1001q0 -301 153 -301q72 0 112 82t40 219q0 301 -154 302q-152 0 -151 -302z" />
<glyph unicode="&#xbb;" horiz-adv-x="1003" d="M72 0l266 539l-266 536h200l277 -538l-277 -537h-200zM465 0l266 539l-266 536h201l276 -538l-276 -537h-201z" />
<glyph unicode="&#xbc;" horiz-adv-x="1011" d="M51 0l324 1317q-100 63 -101 192q0 100 66 166t166 66t165.5 -65.5t65.5 -166.5q0 -127 -98 -190l322 -1319h-220l-84 379h-311l-82 -379h-213zM387 569h229l-53 242q-10 43 -61 313q-20 -109 -62 -313zM393 1509q0 -49 33 -81.5t80 -32.5t79.5 32.5t32.5 81.5t-32.5 82 t-79.5 33t-80 -32.5t-33 -82.5z" />
<glyph unicode="&#xbd;" horiz-adv-x="983" d="M92 715q0 334 101 526q111 215 327 215q313 0 373 -350l-203 -51q-20 104 -57 147q-41 51 -119 51q-215 0 -215 -534q0 -227 49 -369q59 -170 180 -170q70 0 113 51q37 49 68 168l186 -59q-72 -348 -358 -363l-15 -75q31 18 86 18q131 0 131 -145q0 -170 -219 -170 q-106 0 -207 59l41 66q68 -35 150 -35q100 0 100 74q0 68 -53 67q-37 0 -76 -24l-65 26l30 146q-348 68 -348 731z" />
<glyph unicode="&#xbe;" horiz-adv-x="911" d="M143 0v1434h674v-195h-473v-383h309v-192h-309v-469h500v-195h-701zM143 1853h277l188 -327h-168z" />
<glyph unicode="&#xbf;" horiz-adv-x="923" d="M82 334q0 135 61 225q45 70 152 141q76 51 96 119q16 53 17 201h206q0 -195 -32 -277q-39 -100 -176 -190q-117 -78 -117 -201q0 -172 180 -172q135 0 291 142l127 -150q-195 -195 -426 -195q-182 0 -280.5 96.5t-98.5 260.5zM365 1317q0 59 40.5 99t98.5 40q59 0 99 -40 t40 -99t-41 -100t-98 -41t-98 40.5t-41 100.5z" />
<glyph unicode="&#xc0;" horiz-adv-x="1050" d="M92 715q0 332 103 526q113 215 329 215q217 0 332 -213q102 -192 102 -524t-104 -526q-115 -215 -332 -216q-217 0 -327 213q-102 193 -103 525zM185 1526q0 121 57 190q53 63 139 64q78 0 213 -82q41 -25 72 -25q55 0 68 100h135q0 -123 -53.5 -190.5t-139.5 -67.5 q-82 0 -217 82q-41 25 -67 25q-61 0 -72 -96h-135zM297 719q0 -227 51 -371q59 -170 180 -170q226 0 226 537q0 227 -52 370q-61 170 -182 170q-223 0 -223 -536z" />
<glyph unicode="&#xc1;" horiz-adv-x="1050" d="M92 715q0 332 103 526q113 215 329 215q217 0 332 -213q102 -192 102 -524t-104 -526q-115 -215 -332 -216q-217 0 -327 213q-102 193 -103 525zM209 1653q0 53 39 91t90 38t89 -39t38 -90t-37.5 -89t-89.5 -38q-51 0 -90 37.5t-39 89.5zM297 719q0 -227 51 -371 q59 -170 180 -170q226 0 226 537q0 227 -52 370q-61 170 -182 170q-223 0 -223 -536zM572 1653q0 53 39 91t90 38t89 -39t38 -90t-38 -89t-89 -38t-90 37.5t-39 89.5z" />
<glyph unicode="&#xc2;" horiz-adv-x="1536" d="M41 709l367 256q18 12 30 6q20 -18 15 -39l-39 -129h260v274l-127 -39q-20 -10 -41 15q-6 14 4 34l258 363l254 -365q12 -18 6 -32q-16 -20 -37 -15l-129 39v-274h260l-39 129q-6 23 13 39q14 6 32 -6l367 -256l-367 -256q-18 -10 -32 -4q-20 16 -13 40l39 125h-260v-280 l129 41q20 6 37 -13q8 -14 -6 -34l-254 -365l-258 365q-10 23 -4 34q18 23 41 13l127 -41v280h-260l39 -125q6 -23 -15 -40q-12 -6 -35 4z" />
<glyph unicode="&#xc3;" horiz-adv-x="1077" d="M137 414v1020h201v-1012q0 -100 45 -166q51 -76 156 -76q109 0 159 78q43 63 43 162v1014h199v-1008q0 -209 -108.5 -329t-292.5 -120q-178 0 -290 121t-112 316zM178 1833h277l188 -327h-168z" />
<glyph unicode="&#xc4;" horiz-adv-x="1077" d="M137 414v1020h201v-1012q0 -100 45 -166q51 -76 156 -76q109 0 159 78q43 63 43 162v1014h199v-1008q0 -209 -108.5 -329t-292.5 -120q-178 0 -290 121t-112 316zM438 1506l188 327h277l-297 -327h-168z" />
<glyph unicode="&#xc5;" horiz-adv-x="1077" d="M137 414v1020h201v-1012q0 -100 45 -166q51 -76 156 -76q109 0 159 78q43 63 43 162v1014h199v-1008q0 -209 -108.5 -329t-292.5 -120q-178 0 -290 121t-112 316zM225 1526l209 327h213l209 -327h-160l-157 180l-158 -180h-156z" />
<glyph unicode="&#xc6;" horiz-adv-x="1366" d="M35 0l495 1434h742v-195h-453v-383h289v-192h-289v-469h479v-195h-669v338h-281l-110 -338h-203zM410 528h219v437q0 115 4 258q-29 -102 -86 -277z" />
<glyph unicode="&#xc7;" horiz-adv-x="1077" d="M137 414v1020h201v-1012q0 -100 45 -166q51 -76 156 -76q109 0 159 78q43 63 43 162v1014h199v-1008q0 -209 -108.5 -329t-292.5 -120q-178 0 -290 121t-112 316zM229 1653q0 53 39 91t90 38t89 -39t38 -90t-37.5 -89t-89.5 -38q-51 0 -90 37.5t-39 89.5zM592 1653 q0 53 39 91t90 38t89 -39t38 -90t-38 -89t-89 -38t-90 37.5t-39 89.5z" />
<glyph unicode="&#xc8;" horiz-adv-x="1009" d="M45 1434h227l127 -299q82 -190 113 -299q29 104 111 301l122 297h220l-355 -793v-641h-200v635zM406 1516l188 327h277l-297 -327h-168z" />
<glyph unicode="&#xc9;" horiz-adv-x="983" d="M92 715q0 334 101 526q111 215 327 215q313 0 373 -350l-203 -51q-20 104 -57 147q-41 51 -119 51q-215 0 -215 -534q0 -227 49 -369q59 -170 180 -170q70 0 113 51q37 49 68 168l186 -59q-76 -362 -381 -363q-219 0 -328 216q-94 190 -94 522zM207 1863h160l158 -180 l157 180h156l-209 -327h-213z" />
<glyph unicode="&#xca;" d="M63 338q0 170 99 264q94 88 252 88q90 0 164 -35v105q0 154 -140 153q-98 0 -211 -67l-84 149q154 102 310 103q176 0 248.5 -72t72.5 -250v-776h-196v74q-84 -96 -222 -97q-125 0 -204 91q-88 96 -89 270zM84 1546h277l188 -327h-168zM260 342q0 -186 135 -186 q126 0 183 100v215q-68 41 -162 41q-156 0 -156 -170z" />
<glyph unicode="&#xcb;" d="M63 338q0 170 99 264q94 88 252 88q90 0 164 -35v105q0 154 -140 153q-98 0 -211 -67l-84 149q154 102 310 103q176 0 248.5 -72t72.5 -250v-776h-196v74q-84 -96 -222 -97q-125 0 -204 91q-88 96 -89 270zM260 342q0 -186 135 -186q126 0 183 100v215q-68 41 -162 41 q-156 0 -156 -170zM344 1219l188 327h277l-297 -327h-168z" />
<glyph unicode="&#xcc;" d="M63 338q0 170 99 264q94 88 252 88q90 0 164 -35v105q0 154 -140 153q-98 0 -211 -67l-84 149q154 102 310 103q176 0 248.5 -72t72.5 -250v-776h-196v74q-84 -96 -222 -97q-125 0 -204 91q-88 96 -89 270zM131 1209l209 327h213l209 -327h-160l-157 180l-158 -180h-156z M260 342q0 -186 135 -186q126 0 183 100v215q-68 41 -162 41q-156 0 -156 -170z" />
<glyph unicode="&#xcd;" d="M63 338q0 170 99 264q94 88 252 88q90 0 164 -35v105q0 154 -140 153q-98 0 -211 -67l-84 149q154 102 310 103q176 0 248.5 -72t72.5 -250v-776h-196v74q-84 -96 -222 -97q-125 0 -204 91q-88 96 -89 270zM111 1219q0 121 57 190q53 63 139 64q78 0 213 -82 q41 -25 72 -25q55 0 68 100h135q0 -123 -53.5 -190.5t-139.5 -67.5q-82 0 -217 82q-41 25 -67 25q-61 0 -72 -96h-135zM260 342q0 -186 135 -186q126 0 183 100v215q-68 41 -162 41q-156 0 -156 -170z" />
<glyph unicode="&#xce;" d="M63 338q0 170 99 264q94 88 252 88q90 0 164 -35v105q0 154 -140 153q-98 0 -211 -67l-84 149q154 102 310 103q176 0 248.5 -72t72.5 -250v-776h-196v74q-84 -96 -222 -97q-125 0 -204 91q-88 96 -89 270zM137 1336q0 53 39 91t90 38t89 -39t38 -90t-37.5 -89t-89.5 -38 q-51 0 -90 37.5t-39 89.5zM260 342q0 -186 135 -186q126 0 183 100v215q-68 41 -162 41q-156 0 -156 -170zM500 1336q0 53 39 91t90 38t89 -39t38 -90t-38 -89t-89 -38t-90 37.5t-39 89.5z" />
<glyph unicode="&#xcf;" d="M63 338q0 170 99 264q94 88 252 88q90 0 164 -35v105q0 154 -140 153q-98 0 -211 -67l-84 149q154 102 310 103q176 0 248.5 -72t72.5 -250v-776h-196v74q-84 -96 -222 -97q-125 0 -204 91q-88 96 -89 270zM215 1448q0 100 65.5 165.5t166.5 65.5q100 0 165.5 -65.5 t65.5 -165.5t-65.5 -164.5t-165.5 -64.5t-166 64.5t-66 164.5zM260 342q0 -186 135 -186q126 0 183 100v215q-68 41 -162 41q-156 0 -156 -170zM334 1448q0 -49 32.5 -82t80.5 -33q47 0 79.5 33t32.5 82t-32.5 82t-79.5 33t-80 -33t-33 -82z" />
<glyph unicode="&#xd0;" horiz-adv-x="839" d="M80 532q0 279 100.5 422.5t282.5 143.5q193 0 303 -189l-141 -123q-78 123 -168 123q-178 0 -178 -372q0 -371 184 -371q88 0 164 119l141 -117q-119 -186 -299 -191l-14 -75q31 18 86 18q131 0 131 -145q0 -170 -219 -170q-106 0 -207 59l41 66q68 -35 149 -35 q100 0 101 74q0 68 -54 67q-37 0 -75 -24l-66 26l31 148q-293 68 -293 546z" />
<glyph unicode="&#xd1;" horiz-adv-x="921" d="M80 532q0 274 106 424q100 141 277 142q168 0 270 -137q109 -150 109 -420q0 -49 -2 -70h-564q18 -305 203 -305q109 0 195 80l121 -125q-129 -143 -320 -144q-188 0 -293 152q-102 145 -102 403zM98 1546h277l188 -327h-168zM279 641h362q-4 123 -52 197.5t-130 74.5 q-156 0 -180 -272z" />
<glyph unicode="&#xd2;" horiz-adv-x="921" d="M80 532q0 274 106 424q100 141 277 142q168 0 270 -137q109 -150 109 -420q0 -49 -2 -70h-564q18 -305 203 -305q109 0 195 80l121 -125q-129 -143 -320 -144q-188 0 -293 152q-102 145 -102 403zM279 641h362q-4 123 -52 197.5t-130 74.5q-156 0 -180 -272zM358 1219 l188 327h277l-297 -327h-168z" />
<glyph unicode="&#xd3;" horiz-adv-x="921" d="M80 532q0 274 106 424q100 141 277 142q168 0 270 -137q109 -150 109 -420q0 -49 -2 -70h-564q18 -305 203 -305q109 0 195 80l121 -125q-129 -143 -320 -144q-188 0 -293 152q-102 145 -102 403zM145 1199l209 327h213l209 -327h-160l-157 180l-158 -180h-156zM279 641 h362q-4 123 -52 197.5t-130 74.5q-156 0 -180 -272z" />
<glyph unicode="&#xd4;" horiz-adv-x="921" d="M80 532q0 274 106 424q100 141 277 142q168 0 270 -137q109 -150 109 -420q0 -49 -2 -70h-564q18 -305 203 -305q109 0 195 80l121 -125q-129 -143 -320 -144q-188 0 -293 152q-102 145 -102 403zM151 1336q0 53 39 91t90 38t89 -39t38 -90t-37.5 -89t-89.5 -38 q-51 0 -90 37.5t-39 89.5zM279 641h362q-4 123 -52 197.5t-130 74.5q-156 0 -180 -272zM514 1336q0 53 39 91t90 38t89 -39t38 -90t-38 -89t-89 -38t-90 37.5t-39 89.5z" />
<glyph unicode="&#xd5;" horiz-adv-x="450" d="M127 0v1075h197v-1075h-197zM127 1546h277l188 -327h-168z" />
<glyph unicode="&#xd6;" horiz-adv-x="450" d="M127 0v1075h197v-1075h-197zM133 1219l188 327h277l-297 -327h-168z" />
<glyph unicode="&#xd7;" horiz-adv-x="450" d="M127 0v1075h197v-1075h-197zM127 1188l209 327h213l209 -327h-160l-157 180l-158 -180h-156z" />
<glyph unicode="&#xd8;" horiz-adv-x="1050" d="M92 715q0 332 103 526q113 215 329 215q86 0 152 -33l39 113h176l-78 -227q145 -193 145 -590q0 -332 -104 -526q-115 -215 -332 -216q-82 0 -153 33l-37 -112h-176l77 227q-141 195 -141 590zM293 719q0 -197 35 -328l284 842q-41 29 -92 29q-227 0 -227 -543zM434 203 q41 -31 94 -31q121 0 181 170q49 142 49 373q0 201 -37 332z" />
<glyph unicode="&#xd9;" horiz-adv-x="450" d="M127 0v1075h197v-1075h-197zM127 1346q0 53 39 91t90 38t89 -39t38 -90t-37.5 -89t-89.5 -38q-51 0 -90 37.5t-39 89.5zM490 1346q0 53 39 91t90 38t89 -39t38 -90t-38 -89t-89 -38t-90 37.5t-39 89.5z" />
<glyph unicode="&#xda;" horiz-adv-x="917" d="M80 549q0 266 88 407.5t250 141.5q109 0 186 -80v170h-168v162h168v145l197 -2v-143h100v-162h-100v-1188h-197v72q-88 -94 -201 -95q-324 0 -323 572zM279 559q0 -397 165 -397q101 0 160 98v557q-63 96 -170 96q-156 0 -155 -354z" />
<glyph unicode="&#xdb;" horiz-adv-x="913" d="M117 0v1075h196v-74q76 96 209 97q152 0 216.5 -97.5t64.5 -306.5v-694h-197v662q0 135 -29.5 192t-103.5 57q-100 0 -160 -98v-813h-196zM117 1219q0 121 57 190q53 63 139 64q78 0 213 -82q41 -25 72 -25q55 0 68 100h135q0 -123 -53.5 -190.5t-139.5 -67.5 q-82 0 -217 82q-41 25 -67 25q-61 0 -72 -96h-135z" />
<glyph unicode="&#xdc;" horiz-adv-x="933" d="M80 532q0 276 104 424q100 141 285 142q176 0 279 -137q106 -148 106 -420q0 -276 -105.5 -420t-287.5 -144q-174 0 -275 138q-106 143 -106 417zM100 1546h277l188 -327h-168zM279 537q0 -371 188 -371q90 0 139 100.5t49 270.5q0 373 -190 372q-186 0 -186 -372z" />
<glyph unicode="&#xdd;" horiz-adv-x="933" d="M80 532q0 276 104 424q100 141 285 142q176 0 279 -137q106 -148 106 -420q0 -276 -105.5 -420t-287.5 -144q-174 0 -275 138q-106 143 -106 417zM279 537q0 -371 188 -371q90 0 139 100.5t49 270.5q0 373 -190 372q-186 0 -186 -372zM361 1219l188 327h277l-297 -327 h-168z" />
<glyph unicode="&#xde;" horiz-adv-x="933" d="M80 532q0 276 104 424q100 141 285 142q176 0 279 -137q106 -148 106 -420q0 -276 -105.5 -420t-287.5 -144q-174 0 -275 138q-106 143 -106 417zM147 1199l209 327h213l209 -327h-160l-157 180l-158 -180h-156zM279 537q0 -371 188 -371q90 0 139 100.5t49 270.5 q0 373 -190 372q-186 0 -186 -372z" />
<glyph unicode="&#xdf;" horiz-adv-x="948" d="M117 -395v1482q0 209 83 304.5t265 95.5q168 0 258 -96.5t90 -272.5q0 -211 -145 -295q194 -76 194 -377q0 -446 -407 -446h-23v180h25q207 0 207 260q0 281 -211 281h-21v178h19q164 0 163 203q0 203 -153 203q-147 0 -148 -195v-1399z" />
<glyph unicode="&#xe0;" horiz-adv-x="933" d="M80 532q0 276 104 424q100 141 285 142q176 0 279 -137q106 -148 106 -420q0 -276 -105.5 -420t-287.5 -144q-174 0 -275 138q-106 143 -106 417zM127 1219q0 121 57 190q53 63 139 64q78 0 213 -82q41 -25 72 -25q55 0 68 100h135q0 -123 -53.5 -190.5t-139.5 -67.5 q-82 0 -217 82q-41 25 -67 25q-61 0 -72 -96h-135zM279 537q0 -371 188 -371q90 0 139 100.5t49 270.5q0 373 -190 372q-186 0 -186 -372z" />
<glyph unicode="&#xe1;" horiz-adv-x="933" d="M80 532q0 276 104 424q100 141 285 142q176 0 279 -137q106 -148 106 -420q0 -276 -105.5 -420t-287.5 -144q-174 0 -275 138q-106 143 -106 417zM153 1326q0 53 39 91t90 38t89 -39t38 -90t-37.5 -89t-89.5 -38q-51 0 -90 37.5t-39 89.5zM279 537q0 -371 188 -371 q90 0 139 100.5t49 270.5q0 373 -190 372q-186 0 -186 -372zM516 1326q0 53 39 91t90 38t89 -39t38 -90t-38 -89t-89 -38t-90 37.5t-39 89.5z" />
<glyph unicode="&#xe2;" horiz-adv-x="1536" d="M41 709l367 256q18 12 30 6q20 -18 15 -39l-39 -129h260v274l-127 -39q-20 -10 -41 15q-6 14 4 34l258 363l254 -365q12 -18 6 -32q-16 -20 -37 -15l-129 39v-274h260l-39 129q-6 23 13 39q14 6 32 -6l367 -256l-367 -256q-18 -10 -32 -4q-20 16 -13 40l39 125h-260v-280 l129 41q20 6 37 -13q8 -14 -6 -34l-254 -365l-258 365q-10 23 -4 34q18 23 41 13l127 -41v280h-260l39 -125q6 -23 -15 -40q-12 -6 -35 4z" />
<glyph unicode="&#xe3;" horiz-adv-x="913" d="M110 1546h277l188 -327h-168zM111 381v694h196v-661q0 -135 30 -192.5t103 -57.5q100 0 160 98v813h197v-1075h-197v74q-76 -96 -209 -97q-152 0 -217 101q-63 94 -63 303z" />
<glyph unicode="&#xe4;" horiz-adv-x="913" d="M111 381v694h196v-661q0 -135 30 -192.5t103 -57.5q100 0 160 98v813h197v-1075h-197v74q-76 -96 -209 -97q-152 0 -217 101q-63 94 -63 303zM346 1219l188 327h277l-297 -327h-168z" />
<glyph unicode="&#xe5;" horiz-adv-x="913" d="M111 381v694h196v-661q0 -135 30 -192.5t103 -57.5q100 0 160 98v813h197v-1075h-197v74q-76 -96 -209 -97q-152 0 -217 101q-63 94 -63 303zM133 1219l209 327h213l209 -327h-160l-157 180l-158 -180h-156z" />
<glyph unicode="&#xe6;" horiz-adv-x="1402" d="M63 338q0 170 99 264q94 88 252 88q90 0 164 -35v105q0 154 -140 153q-98 0 -211 -67l-84 149q154 102 303 103q113 0 172 -33q47 -27 87 -94q84 127 239 127q168 0 270 -137q109 -150 109 -420q0 -49 -2 -70h-563q18 -305 203 -305q109 0 194 80l121 -125 q-129 -143 -320 -144q-184 0 -276 156q-135 -156 -324 -156q-125 0 -204 91q-88 96 -89 270zM260 342q0 -186 135 -186q126 0 183 100v215q-68 41 -162 41q-156 0 -156 -170zM760 641h362q-4 123 -52 197.5t-130 74.5q-156 0 -180 -272z" />
<glyph unicode="&#xe7;" horiz-adv-x="913" d="M111 381v694h196v-661q0 -135 30 -192.5t103 -57.5q100 0 160 98v813h197v-1075h-197v74q-76 -96 -209 -97q-152 0 -217 101q-63 94 -63 303zM139 1346q0 53 39 91t90 38t89 -39t38 -90t-37.5 -89t-89.5 -38q-51 0 -90 37.5t-39 89.5zM502 1346q0 53 39 91t90 38t89 -39 t38 -90t-38 -89t-89 -38t-90 37.5t-39 89.5z" />
<glyph unicode="&#xe8;" d="M45 1075h209l125 -510q39 -156 63 -293q23 127 66 295l127 508h209l-424 -1454h-193l117 379zM336 1199l188 327h277l-297 -327h-168z" />
<glyph unicode="&#xe9;" horiz-adv-x="839" d="M80 532q0 279 100.5 422.5t282.5 143.5q193 0 303 -189l-141 -123q-78 123 -168 123q-178 0 -178 -372q0 -371 184 -371q88 0 164 119l141 -117q-121 -190 -313 -191q-174 0 -271 138q-104 143 -104 417zM137 1546h160l158 -180l157 180h156l-209 -327h-213z" />
<glyph unicode="&#xea;" d="M45 1075h209l125 -510q39 -156 63 -293q23 127 66 295l127 508h209l-424 -1454h-193l117 379zM129 1326q0 53 39 91t90 38t89 -39t38 -90t-37.5 -89t-89.5 -38q-51 0 -90 37.5t-39 89.5zM492 1326q0 53 39 91t90 38t89 -39t38 -90t-38 -89t-89 -38t-90 37.5t-39 89.5z " />
<glyph unicode="&#xeb;" horiz-adv-x="907" d="M55 211l158 127q100 -160 233 -160q172 0 172 182q0 84 -48 145.5t-192.5 157t-203.5 173.5q-84 109 -84 262q0 160 98.5 259t264.5 99q215 0 348 -194l-148 -132q-53 72 -97 98.5t-110 26.5q-150 0 -149 -151q0 -80 44 -135.5t165 -132.5q160 -102 227 -187 q92 -114 92 -278q0 -176 -102 -285t-289 -109q-242 0 -379 234zM123 1863h160l158 -180l157 180h156l-209 -327h-213z" />
<glyph unicode="&#xec;" horiz-adv-x="796" d="M55 92l76 164q147 -92 250 -92q141 0 141 117q0 53 -47 96q-37 33 -160 104q-115 68 -161 125q-61 76 -62 193q0 141 81 220t226 79q162 0 293 -101l-80 -166q-113 80 -217 80q-106 0 -106 -94q0 -49 33.5 -84t142.5 -98q137 -80 188 -139q66 -78 66 -201 q0 -152 -88 -235t-246 -83q-174 0 -330 115zM69 1546h160l158 -180l157 180h156l-209 -327h-213z" />
<glyph unicode="&#xed;" horiz-adv-x="1177" d="M39 1317v117h412v-117h-146v-688h-117v688h-149zM559 629v805h121l104 -336q20 -59 50 -168q10 59 45 172l104 332h121v-805h-115v325q0 23 2 93v90q-14 -49 -57 -191l-105 -336l-104 336q-20 68 -55 182q0 -25 2 -88v-86v-325h-113z" />
<glyph unicode="&#xee;" horiz-adv-x="1009" d="M45 1434h227l127 -299q82 -190 113 -299q29 104 111 301l122 297h220l-355 -793v-641h-200v635zM196 1643q0 53 39 91t90 38t89 -39t38 -90t-37.5 -89t-89.5 -38q-51 0 -90 37.5t-39 89.5zM559 1643q0 53 39 91t90 38t89 -39t38 -90t-38 -89t-89 -38t-90 37.5t-39 89.5z " />
<glyph unicode="&#xef;" horiz-adv-x="1536" d="M41 709l367 256q18 12 30 6q20 -18 15 -39l-39 -129h260v274l-127 -39q-20 -10 -41 15q-6 14 4 34l258 363l254 -365q12 -18 6 -32q-16 -20 -37 -15l-129 39v-274h260l-39 129q-6 23 13 39q14 6 32 -6l367 -256l-367 -256q-18 -10 -32 -4q-20 16 -13 40l39 125h-260v-280 l129 41q20 6 37 -13q8 -14 -6 -34l-254 -365l-258 365q-10 23 -4 34q18 23 41 13l127 -41v280h-260l39 -125q6 -23 -15 -40q-12 -6 -35 4z" />
<glyph unicode="&#xf1;" horiz-adv-x="729" d="M102 379q18 25 48 16l116 -37v1076h197v-1076l119 37q27 9 45 -16q8 -18 -6 -39l-256 -367l-259 367q-12 25 -4 39z" />
<glyph unicode="&#xf2;" horiz-adv-x="1003" d="M45 696h219l60 -200q45 -154 73 -279q29 115 82 287l283 930h211l-473 -1434h-203z" />
<glyph unicode="&#xf3;" horiz-adv-x="729" d="M102 1055q-8 16 4 39l259 366l256 -366q14 -21 6 -39q-18 -25 -45 -17l-119 37v-1075h-197v1075l-116 -37q-29 -8 -48 17z" />
<glyph unicode="&#xf4;" horiz-adv-x="917" d="M80 549q0 266 88 407.5t250 141.5q109 0 186 -80v57h197v-1075h-197v72q-88 -94 -201 -95q-324 0 -323 572zM279 559q0 -397 165 -397q101 0 160 98v557q-63 96 -170 96q-156 0 -155 -354z" />
<glyph unicode="&#xf6;" horiz-adv-x="1536" d="M41 709l367 256q18 12 30 6q20 -18 15 -39l-39 -129h260v274l-127 -39q-20 -10 -41 15q-6 14 4 34l258 363l254 -365q12 -18 6 -32q-16 -20 -37 -15l-129 39v-274h260l-39 129q-6 23 13 39q14 6 32 -6l367 -256l-367 -256q-18 -10 -32 -4q-20 16 -13 40l39 125h-260v-280 l129 41q20 6 37 -13q8 -14 -6 -34l-254 -365l-258 365q-10 23 -4 34q18 23 41 13l127 -41v280h-260l39 -125q6 -23 -15 -40q-12 -6 -35 4z" />
<glyph unicode="&#xf7;" horiz-adv-x="1536" d="M41 709l367 256q18 12 30 6q20 -18 15 -39l-39 -129h260v274l-127 -39q-20 -10 -41 15q-6 14 4 34l258 363l254 -365q12 -18 6 -32q-16 -20 -37 -15l-129 39v-274h260l-39 129q-6 23 13 39q14 6 32 -6l367 -256l-367 -256q-18 -10 -32 -4q-20 16 -13 40l39 125h-260v-280 l129 41q20 6 37 -13q8 -14 -6 -34l-254 -365l-258 365q-10 23 -4 34q18 23 41 13l127 -41v280h-260l39 -125q6 -23 -15 -40q-12 -6 -35 4z" />
<glyph unicode="&#xf8;" horiz-adv-x="933" d="M80 532q0 276 104 424q100 141 285 142q57 0 113 -17l34 97h168l-67 -183q137 -143 137 -454q0 -276 -105.5 -420t-287.5 -144q-57 0 -113 17l-35 -96h-168l68 182q-133 145 -133 452zM270 537q0 -143 27 -230l221 602q-23 8 -53 9q-195 0 -195 -381zM412 166 q25 -8 55 -8q92 0 144.5 103.5t52.5 275.5q0 143 -29 233z" />
<glyph unicode="&#xf9;" horiz-adv-x="729" d="M102 379q18 25 48 16l116 -37v717l-116 -37q-29 -8 -48 17q-8 16 4 39l259 366l256 -366q14 -20 6 -39q-18 -25 -45 -17l-119 37v-717l119 37q27 9 45 -16q8 -18 -6 -39l-256 -367l-259 367q-12 25 -4 39z" />
<glyph unicode="&#xfa;" horiz-adv-x="1536" d="M41 709l367 256q18 12 30 6q20 -18 15 -39l-39 -129h260v274l-127 -39q-20 -10 -41 15q-6 14 4 34l258 363l254 -365q12 -18 6 -32q-16 -20 -37 -15l-129 39v-274h260l-39 129q-6 23 13 39q14 6 32 -6l367 -256l-367 -256q-18 -10 -32 -4q-20 16 -13 40l39 125h-260v-280 l129 41q20 6 37 -13q8 -14 -6 -34l-254 -365l-258 365q-10 23 -4 34q18 23 41 13l127 -41v280h-260l39 -125q6 -23 -15 -40q-12 -6 -35 4z" />
<glyph unicode="&#xfb;" horiz-adv-x="1536" d="M41 709l367 256q18 12 30 6q20 -18 15 -39l-39 -129h260v274l-127 -39q-20 -10 -41 15q-6 14 4 34l258 363l254 -365q12 -18 6 -32q-16 -20 -37 -15l-129 39v-274h260l-39 129q-6 23 13 39q14 6 32 -6l367 -256l-367 -256q-18 -10 -32 -4q-20 16 -13 40l39 125h-260v-280 l129 41q20 6 37 -13q8 -14 -6 -34l-254 -365l-258 365q-10 23 -4 34q18 23 41 13l127 -41v280h-260l39 -125q6 -23 -15 -40q-12 -6 -35 4z" />
<glyph unicode="&#xfc;" horiz-adv-x="1536" d="M41 709l367 256q18 12 30 6q20 -18 15 -39l-39 -129h260v274l-127 -39q-20 -10 -41 15q-6 14 4 34l258 363l254 -365q12 -18 6 -32q-16 -20 -37 -15l-129 39v-274h260l-39 129q-6 23 13 39q14 6 32 -6l367 -256l-367 -256q-18 -10 -32 -4q-20 16 -13 40l39 125h-260v-280 l129 41q20 6 37 -13q8 -14 -6 -34l-254 -365l-258 365q-10 23 -4 34q18 23 41 13l127 -41v280h-260l39 -125q6 -23 -15 -40q-12 -6 -35 4z" />
<glyph unicode="&#xfd;" horiz-adv-x="1536" d="M41 709l367 256q18 12 30 6q20 -18 15 -39l-39 -129h260v274l-127 -39q-20 -10 -41 15q-6 14 4 34l258 363l254 -365q12 -18 6 -32q-16 -20 -37 -15l-129 39v-274h260l-39 129q-6 23 13 39q14 6 32 -6l367 -256l-367 -256q-18 -10 -32 -4q-20 16 -13 40l39 125h-260v-280 l129 41q20 6 37 -13q8 -14 -6 -34l-254 -365l-258 365q-10 23 -4 34q18 23 41 13l127 -41v280h-260l39 -125q6 -23 -15 -40q-12 -6 -35 4z" />
<glyph unicode="&#x152;" horiz-adv-x="1505" d="M92 715q0 332 103 526q113 215 329 215q184 0 254 -160v138h633v-195h-473v-383h309v-192h-309v-469h500v-195h-660v129q-98 -152 -256 -152q-217 0 -327 213q-102 193 -103 525zM297 719q0 -227 51 -371q59 -170 180 -170q226 0 226 537q0 227 -52 370q-61 170 -182 170 q-223 0 -223 -536z" />
<glyph unicode="&#x153;" horiz-adv-x="1484" d="M80 532q0 276 104 424q100 141 285 142q195 0 279 -172q92 172 278 172q168 0 270 -137q109 -150 109 -420q0 -49 -2 -70h-563q18 -305 202 -305q109 0 195 80l121 -125q-129 -143 -320 -144q-205 0 -288 175q-88 -174 -289 -175q-174 0 -275 138q-106 143 -106 417z M279 537q0 -371 188 -371q90 0 139 100.5t49 270.5q0 373 -190 372q-186 0 -186 -372zM842 641h362q-4 123 -52 197.5t-130 74.5q-156 0 -180 -272z" />
<glyph unicode="&#x2c6;" horiz-adv-x="819" d="M94 1219l209 327h213l209 -327h-160l-157 180l-158 -180h-156z" />
<glyph unicode="&#x2dc;" horiz-adv-x="819" d="M74 1219q0 121 57 190q53 63 139 64q78 0 213 -82q41 -25 72 -25q55 0 68 100h135q0 -123 -53.5 -190.5t-139.5 -67.5q-82 0 -217 82q-41 25 -67 25q-61 0 -72 -96h-135z" />
<glyph unicode="&#x2000;" horiz-adv-x="931" />
<glyph unicode="&#x2001;" horiz-adv-x="1863" />
<glyph unicode="&#x2002;" horiz-adv-x="931" />
<glyph unicode="&#x2003;" horiz-adv-x="1863" />
<glyph unicode="&#x2004;" horiz-adv-x="621" />
<glyph unicode="&#x2005;" horiz-adv-x="465" />
<glyph unicode="&#x2006;" horiz-adv-x="310" />
<glyph unicode="&#x2007;" horiz-adv-x="310" />
<glyph unicode="&#x2008;" horiz-adv-x="232" />
<glyph unicode="&#x2009;" horiz-adv-x="372" />
<glyph unicode="&#x200a;" horiz-adv-x="103" />
<glyph unicode="&#x2010;" horiz-adv-x="614" d="M82 647v205h450v-205h-450z" />
<glyph unicode="&#x2011;" horiz-adv-x="614" d="M82 647v205h450v-205h-450z" />
<glyph unicode="&#x2012;" horiz-adv-x="614" d="M82 647v205h450v-205h-450z" />
<glyph unicode="&#x2013;" horiz-adv-x="821" d="M82 653v193h668v-193h-668z" />
<glyph unicode="&#x2014;" horiz-adv-x="1126" d="M82 653v193h962v-193h-962z" />
<glyph unicode="&#x2018;" horiz-adv-x="495" d="M98 944l138 490h133l-27 -490h-244z" />
<glyph unicode="&#x2019;" horiz-adv-x="495" d="M127 944l27 490h243l-137 -490h-133z" />
<glyph unicode="&#x201a;" horiz-adv-x="495" d="M127 -231l27 489h243l-137 -489h-133z" />
<glyph unicode="&#x201c;" horiz-adv-x="935" d="M98 944l138 490h133l-27 -490h-244zM539 944l137 490h133l-27 -490h-243z" />
<glyph unicode="&#x201d;" horiz-adv-x="935" d="M127 944l27 490h243l-137 -490h-133zM567 944l27 490h244l-138 -490h-133z" />
<glyph unicode="&#x201e;" horiz-adv-x="935" d="M127 -231l27 489h243l-137 -489h-133zM567 -231l27 489h244l-138 -489h-133z" />
<glyph unicode="&#x2022;" horiz-adv-x="819" d="M102 750q0 129 89.5 220t218.5 91t218 -91t89 -220t-89 -218.5t-218 -89.5t-218.5 89.5t-89.5 218.5z" />
<glyph unicode="&#x2026;" horiz-adv-x="1425" d="M92 123q0 61 42 104t104 43q61 0 103 -43t42 -104t-42 -103.5t-103 -42.5t-103.5 42t-42.5 104zM567 123q0 61 42 104t104 43q61 0 103 -43t42 -104t-42 -103.5t-103 -42.5t-103.5 42t-42.5 104zM1042 123q0 61 42 104t104 43q61 0 103 -43t42 -104t-42 -103.5 t-103 -42.5t-103.5 42t-42.5 104z" />
<glyph unicode="&#x202f;" horiz-adv-x="372" />
<glyph unicode="&#x2039;" horiz-adv-x="610" d="M41 537l276 538h201l-266 -536l266 -539h-201z" />
<glyph unicode="&#x203a;" horiz-adv-x="610" d="M92 0l266 537l-266 538h201l276 -536l-276 -539h-201z" />
<glyph unicode="&#x205f;" horiz-adv-x="465" />
<glyph unicode="&#x25fc;" horiz-adv-x="1075" d="M0 0v1075h1075v-1075h-1075z" />
</font>
</defs>
</svg>
